<mxfile host="app.diagrams.net" modified="2020-11-06T12:52:28.603Z" agent="5.0 (X11)" etag="BESVQrGEL8pNrNY2jlYU" version="13.9.2" type="github">
  <diagram id="F-VjHP3vbZ721k1Tp0xN" name="Page-1">
    <mxGraphModel dx="1102" dy="610" grid="1" gridSize="10" guides="1" tooltips="1" connect="1" arrows="1" fold="1" page="1" pageScale="1" pageWidth="850" pageHeight="1100" math="0" shadow="0">
      <root>
        <mxCell id="0" />
        <mxCell id="1" parent="0" />
        <mxCell id="iwLn66LUUv6DTZ-AdvEo-15" value="SubjectName" style="shape=rect;html=1;verticalAlign=top;fontStyle=1;whiteSpace=wrap;align=center;" vertex="1" parent="1">
          <mxGeometry x="160" y="160" width="160" height="120" as="geometry" />
        </mxCell>
        <mxCell id="iwLn66LUUv6DTZ-AdvEo-2" value="ActorName" style="shape=umlActor;html=1;verticalLabelPosition=bottom;verticalAlign=top;align=center;" vertex="1" parent="1">
          <mxGeometry x="60" y="200" width="30" height="60" as="geometry" />
        </mxCell>
        <mxCell id="iwLn66LUUv6DTZ-AdvEo-3" value="UseCaseName" style="shape=ellipse;html=1;strokeWidth=3;fontStyle=1;whiteSpace=wrap;align=center;perimeter=ellipsePerimeter;" vertex="1" parent="1">
          <mxGeometry x="180" y="200" width="120" height="60" as="geometry" />
        </mxCell>
        <mxCell id="iwLn66LUUv6DTZ-AdvEo-4" value="&lt;p style=&quot;margin:0px;margin-top:4px;text-align:center;&quot;&gt;&amp;lt;&amp;lt;actor&amp;gt;&amp;gt;&lt;br/&gt;&lt;b&gt;ActorName&lt;/b&gt;&lt;/p&gt;" style="shape=rect;html=1;overflow=fill;html=1;whiteSpace=wrap;align=center;" vertex="1" parent="1">
          <mxGeometry x="40" y="320" width="80" height="40" as="geometry" />
        </mxCell>
        <mxCell id="iwLn66LUUv6DTZ-AdvEo-5" value="&lt;div&gt;Cas de base&lt;/div&gt;" style="shape=ellipse;html=1;strokeWidth=3;fontStyle=1;whiteSpace=wrap;align=center;perimeter=ellipsePerimeter;" vertex="1" parent="1">
          <mxGeometry x="390" y="250" width="120" height="60" as="geometry" />
        </mxCell>
        <mxCell id="iwLn66LUUv6DTZ-AdvEo-6" value="&lt;div&gt;Cas inclus&lt;/div&gt;&lt;div&gt;obligatoirement&lt;br&gt;&lt;/div&gt;" style="shape=ellipse;html=1;strokeWidth=3;fontStyle=1;whiteSpace=wrap;align=center;perimeter=ellipsePerimeter;" vertex="1" parent="1">
          <mxGeometry x="650" y="170" width="120" height="60" as="geometry" />
        </mxCell>
        <mxCell id="iwLn66LUUv6DTZ-AdvEo-7" value="&lt;div&gt;Cas inclus&lt;/div&gt;&lt;div&gt;optionnellement&lt;br&gt;&lt;/div&gt;" style="shape=ellipse;html=1;strokeWidth=3;fontStyle=1;whiteSpace=wrap;align=center;perimeter=ellipsePerimeter;" vertex="1" parent="1">
          <mxGeometry x="640" y="330" width="120" height="60" as="geometry" />
        </mxCell>
        <mxCell id="iwLn66LUUv6DTZ-AdvEo-8" value="&amp;lt;&amp;lt;include&amp;gt;&amp;gt;" style="edgeStyle=none;html=1;endArrow=open;verticalAlign=bottom;dashed=1;labelBackgroundColor=none;exitX=1;exitY=0;exitDx=0;exitDy=0;entryX=0;entryY=0.5;entryDx=0;entryDy=0;" edge="1" parent="1" source="iwLn66LUUv6DTZ-AdvEo-5" target="iwLn66LUUv6DTZ-AdvEo-6">
          <mxGeometry width="160" relative="1" as="geometry">
            <mxPoint x="710" y="180" as="sourcePoint" />
            <mxPoint x="870" y="180" as="targetPoint" />
          </mxGeometry>
        </mxCell>
        <mxCell id="iwLn66LUUv6DTZ-AdvEo-10" value="Condition: {boolean expression}" style="shape=note;size=15;spacingLeft=5;align=left;whiteSpace=wrap;" vertex="1" parent="1">
          <mxGeometry x="585" y="270" width="195" height="30" as="geometry" />
        </mxCell>
        <mxCell id="iwLn66LUUv6DTZ-AdvEo-11" value="&amp;lt;&amp;lt;extend&amp;gt;&amp;gt;" style="align=right;html=1;verticalAlign=bottom;rounded=0;labelBackgroundColor=none;endArrow=open;endSize=12;dashed=1;entryX=1;entryY=1;entryDx=0;entryDy=0;exitX=0;exitY=0.5;exitDx=0;exitDy=0;" edge="1" parent="1" source="iwLn66LUUv6DTZ-AdvEo-7" target="iwLn66LUUv6DTZ-AdvEo-5">
          <mxGeometry relative="1" as="geometry">
            <mxPoint x="379.99640687119296" y="411.21320343559637" as="targetPoint" />
            <mxPoint x="527.5699999999999" y="470" as="sourcePoint" />
          </mxGeometry>
        </mxCell>
        <mxCell id="iwLn66LUUv6DTZ-AdvEo-12" value="" style="edgeStyle=none;html=1;endArrow=none;rounded=0;labelBackgroundColor=none;dashed=1;exitX=0.5;exitY=1;" edge="1" source="iwLn66LUUv6DTZ-AdvEo-10" parent="1">
          <mxGeometry relative="1" as="geometry">
            <mxPoint x="570" y="330" as="targetPoint" />
          </mxGeometry>
        </mxCell>
        <mxCell id="iwLn66LUUv6DTZ-AdvEo-13" value="" style="edgeStyle=none;html=1;endArrow=none;verticalAlign=bottom;exitX=0.5;exitY=0.5;exitDx=0;exitDy=0;exitPerimeter=0;entryX=0;entryY=0.5;entryDx=0;entryDy=0;" edge="1" parent="1" source="iwLn66LUUv6DTZ-AdvEo-2" target="iwLn66LUUv6DTZ-AdvEo-3">
          <mxGeometry width="160" relative="1" as="geometry">
            <mxPoint x="120" y="270" as="sourcePoint" />
            <mxPoint x="280" y="270" as="targetPoint" />
          </mxGeometry>
        </mxCell>
      </root>
    </mxGraphModel>
  </diagram>
</mxfile>
